<svg data-v-0dd9719b="" version="1.0" xmlns="http://www.w3.org/2000/svg" xmlns:xlink="http://www.w3.org/1999/xlink" width="100%" height="100%" viewBox="0 0 340.000000 250.000000" preserveAspectRatio="xMidYMid meet" color-interpolation-filters="sRGB" style="margin: auto;"> <rect data-v-0dd9719b="" x="0" y="0" width="100%" height="100%" fill="#ffffff" fill-opacity="1" class="background"></rect> <rect data-v-0dd9719b="" x="0" y="0" width="100%" height="100%" fill="url(#watermark)" fill-opacity="1" class="watermarklayer"></rect> <g data-v-0dd9719b="" fill="#393458" class="icon-text-wrapper icon-svg-group iconsvg" transform="translate(47.76499938964844,95)"><g class="iconsvg-imagesvg" transform="translate(0,0)"><g><rect fill="#393458" fill-opacity="0" stroke-width="2" x="0" y="0" width="60" height="60" class="image-rect"></rect> <svg filter="url(#colors5926757285)" x="0" y="0" width="60" height="60" filtersec="colorsf5170139345" class="image-svg-svg primary" style="overflow: visible;"><svg fill="#000000" xmlns:dc="http://purl.org/dc/elements/1.1/" xmlns:cc="http://creativecommons.org/ns#" xmlns:rdf="http://www.w3.org/1999/02/22-rdf-syntax-ns#" xmlns:svg="http://www.w3.org/2000/svg" xmlns="http://www.w3.org/2000/svg" xmlns:sodipodi="http://sodipodi.sourceforge.net/DTD/sodipodi-0.dtd" xmlns:inkscape="http://www.inkscape.org/namespaces/inkscape" viewBox="-1.99998 -2.0009 515.9999399999999 516.00177" version="1.1" x="0px" y="0px"><g transform="translate(-91.214475,-152.15558)"><path style="opacity:1;fill:#000000;fill-opacity:1;fill-rule:evenodd;stroke:none;stroke-width:69.18900299;stroke-linecap:butt;stroke-linejoin:round;stroke-miterlimit:4;stroke-dasharray:none;stroke-opacity:1" d="M 342.48395,152.19843 A 256,256 0 0 0 91.233952,411.30976 256,256 0 0 0 348.79254,664.15155 256,256 0 0 0 603.21442,408.15546 l -0.0781,-6.30859 A 256,256 0 0 0 342.48395,152.19843 Z m 0.90039,48.81055 a 207.18228,207.18228 0 0 1 210.94922,202.04101 l 0.0625,5.10547 A 207.18228,207.18228 0 0 1 348.49176,615.33319 207.18228,207.18228 0 0 1 140.0484,410.70819 207.18228,207.18228 0 0 1 343.38434,201.00898 Z"></path><g style="" transform="matrix(-1.0877908,0,0,-1.0877908,724.1375,869.76394)" fill="#000000"><rect transform="matrix(0.70777103,0.70644191,-0.70777103,0.70644191,0,0)" y="-85.828018" x="559.60889" height="204.84895" width="48.973206" style="opacity:1;fill:#000000;fill-opacity:1;fill-rule:evenodd;stroke:none;stroke-width:2;stroke-linecap:round;stroke-linejoin:round;stroke-miterlimit:4;stroke-dasharray:none;stroke-opacity:1"></rect><rect transform="matrix(0.70777103,-0.70644191,0.70777103,0.70644191,0,0)" y="403.7417" x="-119.01244" height="204.84895" width="48.973206" style="opacity:1;fill:#000000;fill-opacity:1;fill-rule:evenodd;stroke:none;stroke-width:2;stroke-linecap:round;stroke-linejoin:round;stroke-miterlimit:4;stroke-dasharray:none;stroke-opacity:1"></rect></g></g><desc>Created with Snap</desc><defs></defs></svg></svg> <defs><filter id="colors5926757285"><feColorMatrix type="matrix" values="0 0 0 0 0.22265625  0 0 0 0 0.203125  0 0 0 0 0.34375  0 0 0 1 0" class="icon-fecolormatrix"></feColorMatrix></filter> <filter id="colorsf5170139345"><feColorMatrix type="matrix" values="0 0 0 0 0.99609375  0 0 0 0 0.99609375  0 0 0 0 0.99609375  0 0 0 1 0" class="icon-fecolormatrix"></feColorMatrix></filter> <filter id="colorsb6193967524"><feColorMatrix type="matrix" values="0 0 0 0 0  0 0 0 0 0  0 0 0 0 0  0 0 0 1 0" class="icon-fecolormatrix"></feColorMatrix></filter></defs></g></g> <g transform="translate(67,2.7137489318847656)"><g data-gra="path-name" fill-rule="" class="tp-name iconsvg-namesvg" transform="translate(0,0)"><g transform="scale(1)"><g><path d="M20.78-33.24L24.71-33.24 34.75-20.12 30.36-16.74 28.88-18.68 28.88-15.84 16.31-15.84 16.31-18.29 15.1-16.74 12.53-18.72 12.53 1.91 1.25 1.91 1.25-30.67 12.53-30.67 12.53-22.5 20.78-33.24ZM14.28 5.22L14.28-13.08 30.94-13.08 30.94 5.22 14.28 5.22ZM6.27-4.75L8.52-4.75 8.52-24.05 6.27-24.05 6.27-4.75ZM19.34-6.97L19.34-1.05 25.84-1.05 25.84-6.97 19.34-6.97ZM19.11-21.99L26.35-21.99 22.73-26.7 19.11-21.99ZM50.01-13.89L42.81 1.6 36.82-1.21 43.98-16.58 38.84-18.72 45.15-33.82 50.83-31.45 50.01-29.42 69.2-29.42 69.2-22.85 66.78-16.11 61.57-17.98 63.32-22.85 47.25-22.85 44.6-16.42 50.01-13.89ZM65.58 2.26L58.73-14.17 64.33-16.5 71.18-0.08 65.58 2.26ZM48.38-1.17L51.76-1.17 51.76-20.94 57.64-20.94 57.64 5.8 48.38 5.8 48.38-1.17ZM78.27-24.44L74.37-27.87 79.24-33.43 83.13-30.01 78.27-24.44ZM78.58-13.43L74.53-16.93 79.39-22.5 83.44-18.95 78.58-13.43ZM91.3-33.35L97.45-33.35 97.45-31.29 104.81-31.29 104.81-21.56 102.59-21.56 102.75-19.3 90.37-18.49 90.37-16.46 103.91-16.46 103.91-11.29 100.22-11.29 100.22-8.21 106.02-8.21 106.02-2.88 98.7-2.88 105.31 0.78 102.71 5.45 94.61 0.97 96.75-2.88 90.8-2.88 92.94 0.97 84.84 5.45 82.27 0.78 88.85-2.88 82.51-2.88 82.51-7.98 79.51 5.1 74.02 3.85 77.41-10.78 82.86-9.5 82.59-8.21 84.92-8.21 84.92-21.6 83.33-21.6 83.33-31.29 91.3-31.29 91.3-33.35ZM95.04-11.29L90.37-11.29 90.37-8.21 95.04-8.21 95.04-11.29ZM99.24-25.88L88.81-25.88 88.81-23.27 99.24-23.94 99.24-25.88ZM135.2-6.19L135.2-1.05 138.08-1.05 138.59-4.59 142.91-4.01 141.66 5.22 130.3 5.22 130.3-1.28 127.42 1.6 125.67-0.19 124.54 5.8 119.36 4.83 122.09-10.04 118.74-9.22 118.74 5.29 111.15 5.29 111.15-1.56 113.45-1.56 113.45-7.98 110.61-7.32 109.09-13.82 113.45-14.83 113.45-20.67 110.96-20.67 110.96-27.2 113.45-27.2 113.45-33.24 118.74-33.24 118.74-27.2 121-27.2 121-20.67 118.74-20.67 118.74-16.07 120.69-16.54 122.17-10.27 124.11-20.82 122.28-20.82 122.28-27.75 125.4-27.75 126.49-33.78 131.7-32.81 130.77-27.75 134.39-27.75 133.14-31.33 137.66-32.93 139.49-27.75 142.09-27.75 142.09-20.82 129.48-20.82 126.64-5.53 130.3-9.18 130.3-19.15 135.2-19.15 135.2-14.09 138.98-17.86 142.91-13.89 135.2-6.19ZM177.2 5.25L167.7 5.25 167.7-8.8 166.77-8.8 160.7 5.41 155.64 3.27 155.64 5.64 150.19 5.64 150.19-23.9 148.98-10.16 145.32-10.47 146.76-26.74 150.19-26.43 150.19-33.55 155.64-33.55 155.64-27.44 158.28-25.22 158.28-25.41 161.32-25.41 158.56-31.02 163.81-33.63 166.85-27.48 162.68-25.41 167.82-25.41 167.27-25.65 170.78-33.55 176.15-31.17 173.62-25.41 176.61-25.41 176.61-8.8 172.88-8.8 172.88-1.25 174.55-1.25 175.02-3.78 178.72-3.11 177.2 5.25ZM155.64-20.28L155.64 3.27 160.77-8.8 158.28-8.8 158.28-21.56 156.57-19.5 155.64-20.28ZM163.69-19.26L163.69-15.1 171.13-15.1 171.13-19.26 163.69-19.26Z" transform="translate(-1.25, 33.81999969482422)"></path></g> <!----> <!----> <!----> <!----> <!----> <!----> <!----></g></g> <g data-gra="path-slogan" fill-rule="" class="tp-slogan iconsvg-slogansvg" fill="#393458" transform="translate(35.69499969482422,45.619998931884766)"><!----> <!----> <g transform="scale(1, 1)"><g transform="scale(1)"><path d="M2.06-5.06L6.56-5.06L6.56-8.58L7.73-8.58L7.73 0L6.56 0L6.56-3.98L2.06-3.98L2.06 0L0.89 0L0.89-8.58L2.06-8.58L2.06-5.06ZM15.19 0L14.34-2.48L10.88-2.48L9.98 0L8.81 0L12.05-8.58L13.36-8.58L16.45 0L15.19 0ZM12.61-7.31L11.25-3.52L13.92-3.52L12.66-7.31L12.61-7.31ZM21.61-3.70L18.80-3.70L18.80 0L17.63 0L17.63-8.58L21.61-8.58Q24.47-8.58 24.47-6.28L24.47-6.28Q24.47-4.88 23.25-4.22L23.25-4.22Q24.28-3.94 24.28-2.58L24.28-2.58L24.38-1.03Q24.33-0.38 24.80-0.19L24.80-0.19L24.80 0L23.34 0Q23.20-0.61 23.16-2.16L23.16-2.16Q23.20-3.70 21.61-3.70L21.61-3.70ZM21.70-7.64L18.80-7.64L18.80-4.69L21.52-4.69Q23.25-4.69 23.25-6.19L23.25-6.19Q23.25-7.64 21.70-7.64L21.70-7.64ZM29.34-7.64L27.28-7.64L27.28-4.97L29.34-4.97Q31.17-4.92 31.13-6.38L31.13-6.38Q31.13-7.64 29.34-7.64L29.34-7.64ZM29.81 0L26.11 0L26.11-8.58L29.91-8.58Q32.20-8.48 32.30-6.42L32.30-6.42Q32.30-5.16 31.17-4.64L31.17-4.64Q32.77-4.08 32.77-2.53L32.77-2.53Q32.63-0.09 29.81 0L29.81 0ZM29.53-3.98L27.28-3.98L27.28-0.98L29.77-0.98Q31.55-1.03 31.59-2.53L31.59-2.53Q31.59-3.98 29.53-3.98L29.53-3.98ZM34.27-8.58L35.44-8.58L35.44 0L34.27 0L34.27-8.58ZM38.81-8.58L43.13-1.64L43.13-8.58L44.25-8.58L44.25 0L42.94 0L38.58-6.94L38.53-6.94L38.53 0L37.41 0L37.41-8.58L38.81-8.58ZM50.20-1.03L55.50-1.03L55.50 0L48.75 0L48.75-0.94L54-7.59L49.13-7.59L49.13-8.58L55.50-8.58L55.50-7.59L50.20-1.03ZM63.42-4.27L63.42-4.27Q63.23-7.64 60.42-7.83L60.42-7.83Q57.56-7.69 57.42-4.27L57.42-4.27Q57.56-0.94 60.42-0.80L60.42-0.80Q63.23-0.98 63.42-4.27ZM64.59-4.27L64.59-4.27Q64.31 0 60.42 0.14L60.42 0.14Q56.48 0 56.20-4.27L56.20-4.27Q56.44-8.72 60.42-8.81L60.42-8.81Q64.31-8.67 64.59-4.27ZM67.36-8.58L71.67-1.64L71.67-8.58L72.80-8.58L72.80 0L71.48 0L67.13-6.94L67.08-6.94L67.08 0L65.95 0L65.95-8.58L67.36-8.58ZM81-3.61L78.38-3.61L78.38-4.59L82.13-4.59L82.13 0L81.38 0L81.09-1.08Q80.11 0.09 78.28 0.14L78.28 0.14Q76.55 0.14 75.61-0.75L75.61-0.75Q74.20-2.06 74.25-4.36L74.25-4.36Q74.58-8.63 78.33-8.81L78.33-8.81Q81.52-8.63 81.98-6L81.98-6L80.86-6Q80.39-7.78 78.28-7.83L78.28-7.83Q75.61-7.64 75.47-4.31L75.47-4.31Q75.47-0.75 78.33-0.75L78.33-0.75Q79.36-0.75 80.11-1.31L80.11-1.31Q81.05-2.06 81-3.61L81-3.61ZM90.84-8.58L87.61-3.47L87.61 0L86.44 0L86.44-3.47L83.20-8.58L84.56-8.58L87-4.45L89.48-8.58L90.84-8.58ZM97.55-3.19L97.55-8.58L98.72-8.58L98.72-3.05Q98.58 0.05 95.20 0.14L95.20 0.14Q92.06 0.05 91.92-2.86L91.92-2.86L91.92-8.58L93.09-8.58L93.09-3.19Q93.14-0.84 95.25-0.80L95.25-0.80Q97.55-0.84 97.55-3.19L97.55-3.19ZM101.81-1.03L106.97-1.03L106.97 0L100.64 0L100.64-8.58L106.88-8.58L106.88-7.59L101.81-7.59L101.81-4.92L106.50-4.92L106.50-3.89L101.81-3.89L101.81-1.03Z" transform="translate(-0.890625, 8.8125)"></path></g></g></g></g></g><defs v-gra="od"></defs></svg>